<svg width="27" height="27" viewBox="0 0 27 27" fill="none" xmlns="http://www.w3.org/2000/svg">
<path d="M13.5 2.25C9.14625 2.25 5.625 5.77125 5.625 10.125C5.625 16.0312 13.5 24.75 13.5 24.75C13.5 24.75 21.375 16.0312 21.375 10.125C21.375 5.77125 17.8538 2.25 13.5 2.25ZM13.5 12.9375C12.7541 12.9375 12.0387 12.6412 11.5113 12.1137C10.9838 11.5863 10.6875 10.8709 10.6875 10.125C10.6875 9.37908 10.9838 8.66371 11.5113 8.13626C12.0387 7.60882 12.7541 7.3125 13.5 7.3125C14.2459 7.3125 14.9613 7.60882 15.4887 8.13626C16.0162 8.66371 16.3125 9.37908 16.3125 10.125C16.3125 10.8709 16.0162 11.5863 15.4887 12.1137C14.9613 12.6412 14.2459 12.9375 13.5 12.9375Z" fill="#1E4B8F"/>
</svg>
