<svg width="801" height="698" viewBox="0 0 801 698" fill="none" xmlns="http://www.w3.org/2000/svg">
<path d="M552.78 253.219C601.173 363.63 713.545 363.34 717.943 440.759C719.943 475.587 701.594 512.845 675.706 526.753C617.66 557.916 549.133 550.375 484.055 551.847C468.207 552.178 468.568 552.468 454.253 553.122C287.892 560.818 270.489 574.091 221.162 566.265C206.014 563.873 111.573 548.978 67.4946 478.049C24.2387 408.514 55.5589 326.445 66.8399 296.96C124.339 146.164 311.363 50.2564 428.414 86.3568C467.286 98.3561 494.197 122.779 495.307 123.796C495.342 123.829 495.361 123.846 495.396 123.879C537.847 163.399 530.19 201.676 552.78 253.219Z" fill="url(#paint0_linear_12_428)" fill-opacity="0.8"/>
<defs>
<linearGradient id="paint0_linear_12_428" x1="481.428" y1="103.516" x2="319.885" y2="602.137" gradientUnits="userSpaceOnUse">
<stop offset="0.302083" stop-color="#FF511A"/>
<stop offset="1" stop-color="#FFA800"/>
</linearGradient>
</defs>
</svg>
